<svg height="502pt" viewBox="-80 0 502 502.79951" width="502pt" xmlns="http://www.w3.org/2000/svg"><path d="m271.015625 8.355469c35.324219.046875 63.921875 28.722656 63.871094 64.046875-.050781 35.324218-28.726563 63.921875-64.050781 63.871094-7.574219.015624-15.085938-1.355469-22.167969-4.039063l-37.128907 6.507813 10.726563-24.988282c-9.875-11.511718-15.304687-26.179687-15.308594-41.351562.007813-35.375 28.683594-64.046875 64.058594-64.046875zm0 0" fill="#fedb41"/><path d="m254.925781 265.234375v50h-247v-50zm0 0" fill="#00efd1"/><path d="m37.925781 315.234375h187v180h-187zm0 0" fill="#00acea"/><path d="m204.136719 264.914062v.320313h-145.417969v-32.878906c-.003906-19.355469 15.683594-35.050781 35.039062-35.050781 8.8125 11.976562 22.796876 19.050781 37.667969 19.050781 14.871094 0 28.859375-7.074219 37.671875-19.050781 19.355469 0 35.042969 15.695312 35.039063 35.050781zm0 0" fill="#00acea"/><path d="m131.425781 96.605469c21.515625-.003907 38.957031 17.433593 38.960938 38.949219.003906 21.511718-17.433594 38.957031-38.949219 38.960937-21.515625 0-38.957031-17.4375-38.960938-38.953125-.003906-21.511719 17.4375-38.957031 38.949219-38.957031zm0 0" fill="#00acea"/><g fill="#083863"><path d="m213.023438 115.007812-8.835938 20.578126c-1.160156 2.703124-.746094 5.820312 1.078125 8.121093 1.820313 2.304688 4.761719 3.425781 7.652344 2.917969l35.027343-6.144531c7.371094 2.511719 15.105469 3.792969 22.890626 3.792969 33.425781.09375 62.539062-22.789063 70.34375-55.289063 7.808593-32.503906-7.738282-66.109375-37.558594-81.207031-29.824219-15.097656-66.113282-7.730469-87.683594 17.804687-21.574219 25.53125-22.78125 62.542969-2.914062 89.425781zm58-98.652343c30.90625.046875 55.917968 25.140625 55.867187 56.046875-.046875 30.90625-25.144531 55.921875-56.046875 55.871094-6.597656.007812-13.136719-1.179688-19.308594-3.507813-1.351562-.519531-2.820312-.660156-4.246094-.410156l-22.5625 3.953125 4.902344-11.398438c1.207032-2.816406.703125-6.074218-1.300781-8.390625-4.035156-4.691406-7.25-10.035156-9.5-15.800781-6.75-17.238281-4.542969-36.699219 5.902344-51.980469 10.445312-15.285156 27.773437-24.414062 46.285156-24.382812zm0 0"/><path d="m239.40625 66.792969h40c4.417969 0 8-3.582031 8-8s-3.582031-8-8-8h-40c-4.417969 0-8 3.582031-8 8s3.582031 8 8 8zm0 0"/><path d="m239.40625 92.792969h67c4.417969 0 8-3.582031 8-8s-3.582031-8-8-8h-67c-4.417969 0-8 3.582031-8 8s3.582031 8 8 8zm0 0"/><path d="m131.425781 182.515625c25.933594 0 46.960938-21.019531 46.960938-46.957031 0-25.933594-21.023438-46.957032-46.957031-46.953125-25.933594 0-46.957032 21.023437-46.953126 46.957031.027344 25.917969 21.03125 46.921875 46.949219 46.953125zm0-77.910156c17.097657-.003907 30.957031 13.851562 30.960938 30.949219.003906 17.09375-13.855469 30.957031-30.949219 30.960937-17.097656 0-30.957031-13.855469-30.960938-30.953125.015626-17.085938 13.863282-30.9375 30.949219-30.957031zm0 0"/><path d="m7.925781 322.792969h22.480469v172.441406c-.089844 2.023437.671875 3.996094 2.101562 5.429687 1.425782 1.4375 3.394532 2.210938 5.417969 2.128907h187c4.417969 0 8.480469-3.140625 8.480469-7.558594v-172.441406h21.519531c4.417969 0 8.480469-3.140625 8.480469-7.558594v-50c-.1875-4.597656-3.882812-8.273437-8.480469-8.441406h-42.519531v-24.4375c-.085938-23.789063-19.386719-43.03125-43.175781-43.050781-2.5625-.003907-4.976563 1.207031-6.511719 3.261718-7.328125 9.914063-18.921875 15.761719-31.25 15.761719s-23.925781-5.847656-31.25-15.761719c-1.574219-2.058594-4.019531-3.265625-6.609375-3.261718-23.792969.015624-43.101563 19.257812-43.203125 43.050781v24.4375h-42.480469c-4.417969 0-7.519531 4.023437-7.519531 8.441406v50c-.089844 2.023437.671875 3.996094 2.101562 5.429687 1.425782 1.4375 3.394532 2.210938 5.417969 2.128907zm209.480469 164h-171v-164h171zm-151-254.4375c.085938-13.554688 10.125-24.980469 23.554688-26.808594 18.746093 21.464844 50.800781 25.023437 73.796874 8.1875 3.316407-2.386719 6.359376-5.132813 9.074219-8.1875 13.433594 1.824219 23.480469 13.25 23.574219 26.808594v24.4375h-130zm-50 40.4375h231v34h-231zm0 0"/></g></svg>